<svg width="2240" height="1673" viewBox="0 0 2240 1673" fill="none" xmlns="http://www.w3.org/2000/svg">
<g filter="url(#filter0_f_1_7)">
<path d="M538.2 1339.8C736.028 1339.8 896.4 1143.97 896.4 902.4C896.4 660.831 736.028 465 538.2 465C340.372 465 180 660.831 180 902.4C180 1143.97 340.372 1339.8 538.2 1339.8Z" fill="#AFFC41" fill-opacity="0.75"/>
<path d="M1701.2 1492.8C1899.03 1492.8 2059.4 1296.97 2059.4 1055.4C2059.4 813.831 1899.03 618 1701.2 618C1503.37 618 1343 813.831 1343 1055.4C1343 1296.97 1503.37 1492.8 1701.2 1492.8Z" fill="#086375" fill-opacity="0.75"/>
<path d="M1127.2 1054.8C1325.03 1054.8 1485.4 858.969 1485.4 617.4C1485.4 375.831 1325.03 180 1127.2 180C929.372 180 769 375.831 769 617.4C769 858.969 929.372 1054.8 1127.2 1054.8Z" fill="#1DD3B0" fill-opacity="0.75"/>
</g>
<defs>
<filter id="filter0_f_1_7" x="0" y="0" width="2239.4" height="1672.8" filterUnits="userSpaceOnUse" color-interpolation-filters="sRGB">
<feFlood flood-opacity="0" result="BackgroundImageFix"/>
<feBlend mode="normal" in="SourceGraphic" in2="BackgroundImageFix" result="shape"/>
<feGaussianBlur stdDeviation="90" result="effect1_foregroundBlur_1_7"/>
</filter>
</defs>
</svg>
