<svg width="146" height="54" viewBox="0 0 146 54" fill="none" xmlns="http://www.w3.org/2000/svg">
<path d="M30.0334 0.000815544H146L123.316 15.9889V29.3335C123.291 32.5978 122.617 35.8253 121.333 38.8315C120.049 41.8377 118.18 44.5639 115.833 46.8543C113.486 49.1448 110.706 50.9546 107.653 52.1806C104.6 53.4065 101.333 54.0245 98.0385 53.9993H25.2685C21.9748 54.0245 18.7083 53.4064 15.6557 52.1804C12.6031 50.9543 9.8241 49.1443 7.47756 46.8538C5.13102 44.5632 3.26287 41.837 1.97985 38.8308C0.696833 35.8246 0.0240677 32.5974 0 29.3335C0.0276818 25.4532 0.826556 21.6162 2.35099 18.0419C3.87542 14.4675 6.09555 11.2258 8.88455 8.50187C11.6735 5.77793 14.9768 3.62517 18.6056 2.16653C22.2343 0.707901 26.1175 -0.0280167 30.0334 0.000815544Z" fill="#1F8D44"/>
</svg>
